<svg xmlns="http://www.w3.org/2000/svg" xmlns:xlink="http://www.w3.org/1999/xlink" width="83" height="90" version="1.1" viewBox="0 0 83 90"><title>Fill 1</title><g id="Dracarys" fill="none" fill-rule="evenodd" stroke="none" stroke-width="1"><g id="Artboard" fill="#F68814" transform="translate(-2215.000000, -817.000000)"><path id="Fill-1" d="M2258,847 L2258,860.5 L2237,860.5 C2236.86328,860.5 2236.74609,860.44531 2236.64844,860.35156 C2236.55469,860.2539 2236.5,860.13672 2236.5,860 L2236.5,846 L2255,846 L2255,817 L2215,817 L2215,846 L2233.5,846 L2233.5,860 C2233.50781,861.9375 2235.0625,863.4922 2237,863.5 L2258,863.5 L2258,876 L2276.5,876 L2276.5,891 C2276.5,891.13672 2276.44531,891.25391 2276.35156,891.35156 C2276.2539,891.44531 2276.13672,891.5 2276,891.5 L2255,891.5 L2255,878 L2215,878 L2215,907 L2255,907 L2255,894.5 L2276,894.5 C2277.9336,894.49219 2279.4922,892.9375 2279.5,891 L2279.5,876 L2298,876 L2298,847 L2258,847 Z M2220,826 L2250,826 L2250,841 L2220,841 L2220,826 Z M2220,902 L2220,887 L2250,887 L2250,902 L2220,902 Z M2293,871 L2263,871 L2263,856 L2293,856 L2293,871 Z"/></g></g></svg>